<svg width="281" height="281" viewBox="0 0 281 281" fill="none" xmlns="http://www.w3.org/2000/svg">
<path d="M78.375 176L60.625 78.375L109.438 122.75L140.5 69.5L171.562 122.75L220.375 78.375L202.625 176H78.375ZM202.625 202.625C202.625 207.95 199.075 211.5 193.75 211.5H87.25C81.925 211.5 78.375 207.95 78.375 202.625V193.75H202.625V202.625Z" fill="white"/>
<path d="M193.09 197.333V207.404C193.09 207.797 193.24 208.048 193.54 208.157C193.847 208.26 194 208.387 194 208.538C194 208.665 193.937 208.728 193.811 208.728H190.755C190.629 208.728 190.566 208.665 190.566 208.538C190.566 208.387 190.716 208.26 191.016 208.157C191.317 208.048 191.467 207.797 191.467 207.404V197.695L186.266 209H185.914L180.767 198.121V207.404C180.767 207.797 180.917 208.048 181.218 208.157C181.518 208.26 181.668 208.387 181.668 208.538C181.668 208.665 181.605 208.728 181.479 208.728H179.189C179.063 208.728 179 208.665 179 208.538C179 208.387 179.15 208.26 179.451 208.157C179.751 208.048 179.901 207.797 179.901 207.404V197.333C179.901 196.946 179.751 196.698 179.451 196.589C179.15 196.48 179 196.348 179 196.19C179 196.063 179.063 196 179.189 196H181.587L186.518 206.172L191.296 196H193.811C193.937 196 194 196.063 194 196.19C194 196.348 193.847 196.48 193.54 196.589C193.24 196.698 193.09 196.946 193.09 197.333Z" fill="#000"/>
<circle cx="140.5" cy="140.5" r="138" stroke="white" stroke-width="5"/>
</svg>
